<?xml version="1.0" encoding="iso-8859-1"?>
<!-- Generator: Adobe Illustrator 19.0.0, SVG Export Plug-In . SVG Version: 6.00 Build 0)  -->
<svg version="1.1" id="Capa_1" xmlns="http://www.w3.org/2000/svg" xmlns:xlink="http://www.w3.org/1999/xlink" x="0px" y="0px"
	 viewBox="0 0 512 512" style="enable-background:new 0 0 512 512;" xml:space="preserve">
<g>
	<g>
		<path d="M446.449,67.295L383.547,4.394C380.734,1.581,376.919,0,372.94,0H144.328c-8.284,0-15,6.716-15,15v53.171H76.157
			c-8.284,0-15,6.716-15,15V497c0,8.284,6.716,15,15,15h291.515c8.284,0,15-6.716,15-15v-53.171h53.171c8.284,0,15-6.716,15-15
			V77.902C450.843,73.924,449.263,70.108,446.449,67.295z M378.024,41.297l31.521,31.521h-31.521V41.297z M352.672,482H91.157
			V98.171h38.171v330.657c0,8.284,6.716,15,15,15h208.344V482z M420.842,413.828H159.328V30h188.696v57.818c0,8.284,6.716,15,15,15
			h57.818V413.828z"/>
	</g>
</g>
<g>
	<g>
		<path d="M380.819,143.207H199.352c-8.284,0-15,6.716-15,15s6.716,15,15,15H380.82c8.284,0,15-6.716,15-15
			S389.104,143.207,380.819,143.207z"/>
	</g>
</g>
<g>
	<g>
		<path d="M380.819,193.216H199.352c-8.284,0-15,6.716-15,15s6.716,15,15,15H380.82c8.284,0,15-6.716,15-15
			S389.104,193.216,380.819,193.216z"/>
	</g>
</g>
<g>
	<g>
		<path d="M380.819,243.227H199.352c-8.284,0-15,6.716-15,15s6.716,15,15,15H380.82c8.284,0,15-6.716,15-15
			S389.104,243.227,380.819,243.227z"/>
	</g>
</g>
<g>
	<g>
		<path d="M380.819,293.236H199.352c-8.284,0-15,6.716-15,15s6.716,15,15,15H380.82c8.284,0,15-6.716,15-15
			S389.104,293.236,380.819,293.236z"/>
	</g>
</g>
<g>
	<g>
		<path d="M380.819,343.246H199.352c-8.284,0-15,6.716-15,15s6.716,15,15,15H380.82c8.284,0,14.999-6.716,14.999-15
			S389.103,343.246,380.819,343.246z"/>
	</g>
</g>
<g>
</g>
<g>
</g>
<g>
</g>
<g>
</g>
<g>
</g>
<g>
</g>
<g>
</g>
<g>
</g>
<g>
</g>
<g>
</g>
<g>
</g>
<g>
</g>
<g>
</g>
<g>
</g>
<g>
</g>
</svg>
